HIERARCHY
ROOT Hips
{
	OFFSET 0.000000 0.000000 0.000000
	CHANNELS 6 Xposition Yposition Zposition Zrotation Yrotation Xrotation
	JOINT LHipJoint
	{
		OFFSET 0.000000 0.000000 0.000000
		CHANNELS 6 Xposition Yposition Zposition Zrotation Yrotation Xrotation
		JOINT LeftHip
		{
			OFFSET 1.623290 -1.807953 0.673306
			CHANNELS 3 Zrotation Yrotation Xrotation
			JOINT LeftKnee
			{
				OFFSET 2.571390 -7.064840 0.000493
				CHANNELS 6 Xposition Yposition Zposition Zrotation Yrotation Xrotation
				JOINT LeftAnkle
				{
					OFFSET 2.520170 -6.924130 0.000483
					CHANNELS 6 Xposition Yposition Zposition Zrotation Yrotation Xrotation
					JOINT LeftToe
					{
						OFFSET 0.232950 -0.639863 2.102185
						CHANNELS 6 Xposition Yposition Zposition Zrotation Yrotation Xrotation
						End Site
						{
							OFFSET 0.000000 0.000076 1.101390
						}
					}
				}
			}
		}
	}
	JOINT RHipJoint
	{
		OFFSET 0.000000 0.000000 0.000000
		CHANNELS 6 Xposition Yposition Zposition Zrotation Yrotation Xrotation
		JOINT RightHip
		{
			OFFSET -1.480610 -1.807953 0.673306
			CHANNELS 3 Zrotation Yrotation Xrotation
			JOINT RightKnee
			{
				OFFSET -2.632580 -7.232961 0.000504
				CHANNELS 6 Xposition Yposition Zposition Zrotation Yrotation Xrotation
				JOINT RightAnkle
				{
					OFFSET -2.547790 -6.999999 0.000488
					CHANNELS 6 Xposition Yposition Zposition Zrotation Yrotation Xrotation
					JOINT RightToe
					{
						OFFSET -0.230670 -0.633614 2.121654
						CHANNELS 6 Xposition Yposition Zposition Zrotation Yrotation Xrotation
						End Site
						{
							OFFSET 0.000000 0.000078 1.110000
						}
					}
				}
			}
		}
	}
	JOINT lowerback
	{
		OFFSET 0.000000 0.000000 0.000000
		CHANNELS 6 Xposition Yposition Zposition Zrotation Yrotation Xrotation
		JOINT Chest
		{
			OFFSET -0.021080 2.075718 -0.169955
			CHANNELS 3 Zrotation Yrotation Xrotation
			JOINT Chest2
			{
				OFFSET 0.050700 2.084388 -0.031555
				CHANNELS 6 Xposition Yposition Zposition Zrotation Yrotation Xrotation
				JOINT lowerneck
				{
					OFFSET 0.000000 0.000000 0.000000
					CHANNELS 6 Xposition Yposition Zposition Zrotation Yrotation Xrotation
					JOINT Neck
					{
						OFFSET -0.107310 1.604102 0.313588
						CHANNELS 3 Zrotation Yrotation Xrotation
						JOINT Head
						{
							OFFSET 0.084110 1.656768 -0.308336
							CHANNELS 6 Xposition Yposition Zposition Zrotation Yrotation Xrotation
							End Site
							{
								OFFSET 0.039110 1.691480 -0.141578
							}
						}
					}
				}
				JOINT LeftCollar
				{
					OFFSET 0.000000 0.000000 0.000000
					CHANNELS 6 Xposition Yposition Zposition Zrotation Yrotation Xrotation
					JOINT LeftShoulder
					{
						OFFSET 3.523150 0.732152 -0.546991
						CHANNELS 3 Zrotation Xrotation Yrotation
						JOINT LeftElbow
						{
							OFFSET 0.000000 -5.324619 0.000371
							CHANNELS 6 Xposition Yposition Zposition Zrotation Xrotation Yrotation
							JOINT LeftWrist
							{
								OFFSET 0.000000 -3.484020 0.000243
								CHANNELS 6 Xposition Yposition Zposition Zrotation Xrotation Yrotation
								JOINT lhand
								{
									OFFSET 0.000000 0.000000 0.000000
									CHANNELS 6 Xposition Yposition Zposition Zrotation Xrotation Yrotation
									JOINT LFingers
									{
										OFFSET 0.000000 -0.572480 0.000040
										CHANNELS 3 Zrotation Xrotation Yrotation
										End Site
										{
											OFFSET 0.000000 -0.461540 0.000032
										}
									}
								}
								JOINT LThumb
								{
									OFFSET 0.000000 0.000000 0.000000
									CHANNELS 6 Xposition Yposition Zposition Zrotation Xrotation Yrotation
									End Site
									{
										OFFSET 0.000000 -0.468558 0.468623
									}
								}
							}
						}
					}
				}
				JOINT RightCollar
				{
					OFFSET 0.000000 0.000000 0.000000
					CHANNELS 6 Xposition Yposition Zposition Zrotation Yrotation Xrotation
					JOINT RightShoulder
					{
						OFFSET -3.417660 0.935913 -0.100255
						CHANNELS 3 Zrotation Xrotation Yrotation
						JOINT RightElbow
						{
							OFFSET 0.000000 -5.335890 0.000372
							CHANNELS 6 Xposition Yposition Zposition Zrotation Xrotation Yrotation
							JOINT RightWrist
							{
								OFFSET 0.000000 -3.641340 0.000254
								CHANNELS 6 Xposition Yposition Zposition Zrotation Xrotation Yrotation
								JOINT rhand
								{
									OFFSET 0.000000 0.000000 0.000000
									CHANNELS 6 Xposition Yposition Zposition Zrotation Xrotation Yrotation
									JOINT RFingers
									{
										OFFSET 0.000000 -0.734810 0.000051
										CHANNELS 3 Zrotation Xrotation Yrotation
										End Site
										{
											OFFSET 0.000000 -0.592420 0.000041
										}
									}
								}
								JOINT RThumb
								{
									OFFSET 0.000000 0.000000 0.000000
									CHANNELS 6 Xposition Yposition Zposition Zrotation Xrotation Yrotation
									End Site
									{
										OFFSET 0.000000 -0.601428 0.601512
									}
								}
							}
						}
					}
				}
			}
		}
	}
}
MOTION
Frames: 6
Frame Time: 0.041667
-1.993500 17.681707 0.099967 0.398170 -1.002272 4.290399 -0.000000 -0.000002 -0.000000 -0.000001 -0.000000 -0.000004 -19.241271 -3.607917 -5.952176 2.571390 -7.064843 0.000492 1.942184 8.746038 25.003661 2.520170 -6.924133 0.000484 0.954280 4.637168 -20.690111 0.232951 -0.639863 2.102184 1.278503 -7.164313 -20.203341 -0.000000 -0.000002 -0.000000 -0.000003 0.000001 0.000003 17.404989 7.657386 -8.659841 -2.632579 -7.232961 0.000505 -3.037144 -10.756313 31.461624 -2.547790 -7.000001 0.000488 -1.780046 2.116279 -24.653508 -0.230670 -0.633612 2.121654 -0.142028 -2.430410 6.696798 -0.000000 -0.000002 -0.000000 -2.785870 -0.431795 -0.280397 1.903140 -0.569468 -1.574598 0.050700 2.084386 -0.031555 3.525416 -0.235854 -1.412893 -0.000000 -0.000002 -0.000000 -10.790175 -3.330949 -22.159135 5.441469 -2.444122 25.015520 0.084110 1.656765 -0.308335 3.457999 -1.416259 12.147908 -0.000000 -0.000002 -0.000000 0.000003 -0.000000 0.000000 -1.868457 0.357780 -6.379332 -0.000000 -5.324620 0.000371 12.911968 -21.157706 2.422294 0.000001 -3.484021 0.000242 11.813773 14.714862 -27.099634 0.000001 -0.000001 0.000000 0.000000 -0.000001 -0.000001 -7.125000 0.000031 -0.000496 0.000001 -0.000001 0.000000 -19.990441 56.440729 5.767030 -0.000000 -0.000002 0.000000 -0.000000 -0.000000 -0.000000 -2.321773 1.814259 8.315159 0.000000 -5.335888 0.000372 -15.702325 -25.114956 -3.519675 0.000000 -3.641340 0.000253 -19.739607 19.141134 -0.222537 -0.000000 0.000000 0.000000 0.000002 -0.000000 -0.000000 7.124997 0.000031 0.000496 -0.000000 -0.000000 0.000000 5.362228 29.724211 2.006513 
-1.991800 17.680307 0.098967 0.272870 -1.001481 4.234299 -0.000000 -0.000000 0.000000 -0.000002 -0.000002 -0.000002 -19.094781 -3.512108 -6.015976 2.571389 -7.064841 0.000492 1.966881 8.798141 25.165357 2.520169 -6.924132 0.000484 0.973894 4.437670 -20.751611 0.232951 -0.639863 2.102186 1.278802 -7.165017 -20.205535 -0.000000 -0.000000 0.000000 0.000001 0.000001 0.000002 17.546095 7.670901 -8.612136 -2.632580 -7.232962 0.000505 -3.037244 -10.756515 31.462133 -2.547789 -7.000000 0.000489 -1.776645 2.048479 -24.646108 -0.230669 -0.633614 2.121654 -0.137829 -2.394611 6.597399 -0.000000 -0.000000 0.000000 -2.643673 -0.384984 -0.172997 1.942636 -0.507864 -1.500598 0.050700 2.084389 -0.031555 3.485915 -0.207757 -1.402793 0.000000 0.000002 -0.000000 -10.840168 -3.376152 -22.185336 5.526075 -2.510417 24.936920 0.084110 1.656770 -0.308336 3.485800 -1.437358 12.130507 0.000000 0.000002 -0.000000 0.000000 -0.000000 -0.000000 -1.809236 0.319576 -6.681828 0.000001 -5.324620 0.000371 13.033069 -21.335308 2.466100 0.000001 -3.484021 0.000243 12.194335 14.957228 -28.199833 0.000002 -0.000000 -0.000000 -0.000000 0.000000 0.000001 -7.125001 0.000032 -0.000495 0.000002 -0.000000 -0.000000 -20.325526 57.550238 6.421419 0.000000 0.000001 0.000000 -0.000002 0.000000 0.000000 -2.320665 1.682960 8.186958 0.000001 -5.335889 0.000372 -15.674323 -25.076657 -3.507773 -0.000000 -3.641339 0.000255 -19.610680 19.102128 -0.594638 -0.000001 -0.000001 -0.000000 0.000003 -0.000000 -0.000000 7.125000 0.000031 0.000495 -0.000001 -0.000001 0.000000 5.442725 29.330410 2.088119 
-1.986500 17.674608 0.099267 0.310770 -1.005278 4.233499 0.000000 0.000002 0.000000 -0.000001 -0.000002 -0.000002 -19.140384 -3.450611 -6.080082 2.571390 -7.064840 0.000492 1.978678 8.822943 25.242458 2.520169 -6.924133 0.000484 0.991406 4.274572 -20.816919 0.232951 -0.639863 2.102185 1.292508 -7.201910 -20.315238 0.000000 0.000002 0.000000 -0.000002 -0.000001 0.000001 17.476292 7.621994 -8.675635 -2.632581 -7.232962 0.000505 -3.055043 -10.785115 31.557632 -2.547790 -7.000000 0.000488 -1.784546 2.117179 -24.685306 -0.230670 -0.633616 2.121654 -0.133233 -2.354010 6.485002 0.000000 0.000002 0.000000 -2.661373 -0.376286 -0.128396 1.952435 -0.497164 -1.505098 0.050700 2.084385 -0.031555 3.506314 -0.201556 -1.433093 0.000000 0.000002 -0.000000 -10.781076 -3.306948 -22.083035 5.494970 -2.434319 24.843017 0.084110 1.656768 -0.308335 3.474398 -1.400658 12.064511 0.000000 0.000002 -0.000000 0.000000 -0.000000 0.000001 -1.763040 0.334178 -6.607826 0.000000 -5.324621 0.000371 13.032370 -21.334304 2.465902 0.000001 -3.484022 0.000244 11.613220 14.742834 -27.791464 0.000000 -0.000001 -0.000000 0.000000 -0.000000 -0.000000 -7.125003 0.000031 -0.000496 0.000000 -0.000001 0.000000 -20.642404 57.046648 6.273290 0.000000 0.000002 -0.000000 -0.000002 0.000000 -0.000000 -2.321268 1.728460 8.248657 0.000000 -5.335890 0.000372 -15.708728 -25.123654 -3.522377 0.000001 -3.641341 0.000255 -19.604977 18.912334 -0.711036 0.000001 -0.000000 0.000000 0.000002 -0.000000 0.000000 7.125001 0.000030 0.000496 0.000001 0.000000 0.000001 5.441023 29.207310 2.103419 
-1.985200 17.673807 0.105867 0.427966 -0.948470 4.229899 0.000000 0.000004 -0.000000 0.000003 -0.000000 -0.000002 -19.258185 -3.392318 -6.043979 2.571390 -7.064840 0.000492 1.961777 8.787440 25.132256 2.520169 -6.924133 0.000484 0.982905 4.243571 -20.720911 0.232951 -0.639864 2.102185 1.284202 -7.179712 -20.249233 0.000000 0.000004 -0.000000 0.000002 -0.000001 0.000003 17.348694 7.599481 -8.756140 -2.632580 -7.232961 0.000505 -3.091935 -10.843819 31.754127 -2.547790 -7.000001 0.000488 -1.796244 2.109877 -24.770904 -0.230670 -0.633611 2.121654 -0.121744 -2.250409 6.198299 0.000000 0.000004 -0.000000 -2.808771 -0.422596 -0.145195 1.974440 -0.559463 -1.466598 0.050700 2.084387 -0.031555 3.612616 -0.232248 -1.377792 0.000000 -0.000001 -0.000000 -10.662175 -3.272538 -22.159835 5.285466 -2.357934 24.893022 0.084110 1.656769 -0.308336 3.387897 -1.383163 12.087805 0.000000 -0.000001 -0.000000 0.000002 -0.000001 0.000000 -1.794753 0.273279 -6.424030 0.000001 -5.324626 0.000371 12.997169 -21.282702 2.453098 0.000000 -3.484019 0.000243 11.871776 14.706355 -27.166833 0.000001 -0.000002 0.000000 -0.000000 0.000000 0.000002 -7.125002 0.000031 -0.000492 0.000001 -0.000001 0.000000 -19.974649 56.515540 5.798946 0.000000 -0.000001 0.000000 -0.000004 -0.000000 -0.000000 -2.421284 1.650558 8.483951 0.000000 -5.335887 0.000372 -15.688924 -25.096555 -3.513974 -0.000000 -3.641340 0.000255 -19.570473 18.916832 -0.845036 -0.000001 0.000001 -0.000000 0.000002 0.000000 0.000000 7.124999 0.000031 0.000496 -0.000001 0.000001 0.000000 5.460820 29.065710 2.129621 
-1.974800 17.672709 0.112468 0.646959 -0.845755 4.327299 -0.000000 0.000000 0.000000 -0.000003 -0.000001 -0.000002 -19.519385 -3.374332 -6.117870 2.571389 -7.064840 0.000492 1.951382 8.765436 25.063854 2.520170 -6.924130 0.000484 0.982010 4.116873 -20.639713 0.232951 -0.639863 2.102184 1.298404 -7.217609 -20.362035 -0.000000 0.000000 0.000000 0.000000 -0.000000 0.000003 17.067000 7.586766 -8.882448 -2.632580 -7.232963 0.000505 -3.118430 -10.885821 31.894924 -2.547789 -7.000000 0.000489 -1.821748 2.171377 -24.936399 -0.230669 -0.633615 2.121654 -0.125841 -2.287808 6.301597 -0.000000 0.000000 0.000000 -2.954467 -0.466606 -0.249295 1.976144 -0.616762 -1.472898 0.050700 2.084391 -0.031555 3.696218 -0.260243 -1.319792 0.000000 -0.000001 -0.000000 -10.748174 -3.286645 -22.218740 5.301163 -2.345533 24.966220 0.084110 1.656766 -0.308336 3.412297 -1.384962 12.128811 0.000000 -0.000000 -0.000000 -0.000001 -0.000000 0.000000 -1.897757 0.220580 -6.373634 0.000000 -5.324620 0.000371 12.951171 -21.215206 2.436397 0.000000 -3.484022 0.000243 11.848711 14.889835 -27.764649 0.000000 -0.000000 -0.000000 0.000003 0.000000 0.000000 -7.125002 0.000031 -0.000493 0.000000 -0.000000 0.000000 -20.386016 57.070646 6.202811 0.000000 -0.000000 -0.000000 -0.000002 -0.000000 0.000000 -2.555101 1.681055 8.718443 0.000001 -5.335890 0.000372 -15.748529 -25.177957 -3.539280 0.000001 -3.641341 0.000254 -19.502813 19.063329 -0.260420 -0.000000 0.000001 -0.000000 0.000001 -0.000000 0.000000 7.124997 0.000031 0.000496 -0.000000 0.000001 0.000000 5.545718 29.683012 2.081231 
-1.973900 17.670307 0.119168 0.579860 -0.867560 4.282900 -0.000000 0.000003 0.000000 -0.000002 -0.000000 -0.000004 -19.445994 -3.301731 -6.102773 2.571390 -7.064840 0.000492 1.963180 8.790440 25.141558 2.520169 -6.924132 0.000483 0.991017 4.103071 -20.714912 0.232950 -0.639864 2.102185 1.298505 -7.218012 -20.363236 -0.000000 0.000003 0.000000 0.000002 -0.000003 0.000002 17.159597 7.657076 -8.839144 -2.632579 -7.232962 0.000505 -3.131627 -10.906622 31.964626 -2.547790 -7.000000 0.000489 -1.815937 1.975578 -24.943405 -0.230669 -0.633615 2.121654 -0.089262 -1.928007 5.306700 -0.000000 0.000003 0.000000 -2.905069 -0.445003 -0.208995 2.020342 -0.588059 -1.430298 0.050700 2.084389 -0.031555 3.713917 -0.247241 -1.301091 -0.000000 -0.000001 -0.000000 -10.732576 -3.275643 -22.197737 5.317464 -2.341832 24.914121 0.084110 1.656769 -0.308336 3.415296 -1.378562 12.103707 -0.000000 -0.000001 -0.000000 0.000002 -0.000001 0.000001 -1.902166 0.147980 -6.226035 0.000001 -5.324618 0.000371 12.871166 -21.097807 2.407589 0.000001 -3.484020 0.000244 11.781611 15.059638 -27.725363 -0.000000 -0.000001 0.000000 -0.000000 0.000000 0.000001 -7.125004 0.000029 -0.000493 0.000000 -0.000001 0.000000 -20.428017 57.020035 6.191003 -0.000000 -0.000001 -0.000000 -0.000004 -0.000000 -0.000000 -2.529700 1.695656 8.717946 0.000000 -5.335890 0.000372 -15.784127 -25.226551 -3.554381 -0.000000 -3.641341 0.000255 -19.650601 19.201233 -0.288534 -0.000002 0.000000 -0.000000 0.000004 0.000000 0.000000 7.124999 0.000031 0.000496 -0.000002 0.000000 0.000000 5.428324 29.653908 2.040520 
